<?xml version="1.0" encoding="UTF-8" standalone="no"?><!DOCTYPE svg PUBLIC "-//W3C//DTD SVG 1.1//EN" "http://www.w3.org/Graphics/SVG/1.1/DTD/svg11.dtd"><svg width="100%" height="100%" viewBox="0 0 677 166" version="1.1" xmlns="http://www.w3.org/2000/svg" xmlns:xlink="http://www.w3.org/1999/xlink" xml:space="preserve" xmlns:serif="http://www.serif.com/" style="fill-rule:evenodd;clip-rule:evenodd;stroke-linejoin:round;stroke-miterlimit:2;"><rect id="slogan_web" x="0" y="-0" width="677" height="166" style="fill:none;"/><g><path d="M20.063,17.253l32.18,0l-0,99.641l58.64,0l-0,32.016l-90.82,0l-0,-131.657Z" style="fill:#4d4d4d;fill-rule:nonzero;"/><path d="M176.249,102.682l16.954,0l-8.42,-17.812l-8.534,17.812Zm-58.832,46.228l63.495,-131.494l7.604,0l63.578,131.494l-34.935,0l-9.763,-20.01l-45.366,0l-9.762,20.01l-34.851,0Z" style="fill:#4d4d4d;fill-rule:nonzero;"/><path d="M307.056,49.187l-8.474,-0l0.308,67.625l3.55,-0c26.092,-0 42.521,-11.552 45.507,-33.812c-0,-21.915 -17.868,-33.813 -40.891,-33.813m-2.776,-31.852l-0,-0.082l2.858,-0c23.251,-0 42.681,7.876 55.842,19.351c12.357,11.899 18.48,27.579 18.48,46.595c-0,19.014 -6.128,34.654 -18.484,46.442c-16.295,12.82 -37.115,19.269 -61.555,19.269l-37.895,-0l-0,-131.575l40.754,-0Z" style="fill:#4d4d4d;fill-rule:nonzero;"/><path d="M458.066,48.616c-11.062,-0 -17.732,3.31 -25.371,10.071c-7.781,6.887 -11.567,14.871 -11.567,24.31c-0,9.547 3.789,17.52 11.552,24.297c7.699,6.721 14.38,10.009 25.386,10.009c10.819,-0 17.483,-3.283 25.312,-10.022c7.812,-6.724 11.626,-14.688 11.626,-24.284c-0,-9.488 -3.811,-17.463 -11.641,-24.297c-7.767,-6.78 -14.423,-10.084 -25.297,-10.084m-0.001,-32.424c20.165,-0 35.213,6.62 49.613,19.678c13.645,13.059 20.547,28.953 20.547,47.287c-0,18.384 -6.902,34.257 -20.555,47.216c-14.351,12.904 -29.391,19.436 -49.61,19.436c-20.267,-0.055 -35.3,-6.578 -49.603,-19.44c-13.596,-13.017 -20.464,-28.879 -20.464,-47.212c-0,-18.283 6.869,-34.165 20.455,-47.283c14.409,-13.066 29.45,-19.682 49.617,-19.682" style="fill:#4d4d4d;fill-rule:nonzero;"/><path d="M546.623,16.927l77.078,69.284l0,-69.284l33.236,-0l0,131.983l-7.239,-0l-76.894,-69.121l0,69.121l-33.149,-0l0,-131.983l6.968,-0Z" style="fill:#4d4d4d;fill-rule:nonzero;"/></g></svg>