<?xml version="1.0" encoding="utf-8"?>
<!-- Generator: Adobe Illustrator 28.0.0, SVG Export Plug-In . SVG Version: 6.00 Build 0)  -->
<svg version="1.0" id="katman_1" xmlns="http://www.w3.org/2000/svg" xmlns:xlink="http://www.w3.org/1999/xlink" x="0px" y="0px"
	 viewBox="0 0 841.89 595.28" style="enable-background:new 0 0 841.89 595.28;" xml:space="preserve">
<style type="text/css">
	.st0{clip-path:url(#SVGID_00000023263624766597436540000014701378158673647270_);}
	.st1{fill:url(#SVGID_00000116220663362952824100000006571490852935896764_);}
	.st2{fill:url(#SVGID_00000157292355486068440490000008751158460595340947_);}
</style>
<g>
	<defs>
		<rect id="SVGID_1_" x="49.17" y="206.94" width="743.63" height="180.99"/>
	</defs>
	<clipPath id="SVGID_00000101786511580706380980000009625675968072492730_">
		<use xlink:href="#SVGID_1_"  style="overflow:visible;"/>
	</clipPath>
	<g style="clip-path:url(#SVGID_00000101786511580706380980000009625675968072492730_);">
		
			<linearGradient id="SVGID_00000164496039387684312900000002715006002778772393_" gradientUnits="userSpaceOnUse" x1="49.1847" y1="299.2656" x2="792.8172" y2="299.2656" gradientTransform="matrix(1 0 0 -1 -0.0151 596.7022)">
			<stop  offset="0" style="stop-color:#F0060B"/>
			<stop  offset="0" style="stop-color:#F0070C"/>
			<stop  offset="0.526" style="stop-color:#CC26D5"/>
			<stop  offset="1" style="stop-color:#7702FF"/>
		</linearGradient>
		<path style="fill:url(#SVGID_00000164496039387684312900000002715006002778772393_);" d="M343.5,352.05h23.36l-42.57-121.01
			h-27.08l-42.57,121.01H278l9.98-29.8h45.48L343.5,352.05L343.5,352.05z M293.93,304.59l16.36-48.7h0.93l16.36,48.7H293.93
			L293.93,304.59z M389.97,298.89v53.16H368.6v-90.71h20.45v15.43h1.05c2.11-5.08,5.45-9.11,10.04-12.08
			c4.59-2.97,10.29-4.46,17.04-4.46c6.26,0,11.71,1.36,16.42,4.03c4.65,2.66,8.3,6.57,10.84,11.65c2.6,5.08,3.84,11.22,3.78,18.46
			v57.68h-21.38v-54.46c0-6.07-1.55-10.78-4.71-14.25c-3.16-3.41-7.44-5.14-12.95-5.14c-3.72,0-7.06,0.8-9.98,2.48
			c-2.91,1.61-5.14,3.97-6.82,7.06C390.84,290.78,389.97,294.49,389.97,298.89L389.97,298.89z M495.37,387.93
			c-7.68,0-14.25-1.05-19.77-3.1c-5.51-2.04-9.91-4.83-13.26-8.3c-3.35-3.47-5.7-7.31-6.94-11.52l19.27-4.65
			c0.87,1.8,2.11,3.53,3.78,5.27c1.67,1.73,3.9,3.22,6.69,4.4c2.79,1.18,6.38,1.73,10.66,1.73c6.07,0,11.09-1.49,15.06-4.4
			c3.97-2.91,5.95-7.74,5.95-14.44v-17.16h-1.05c-1.12,2.23-2.73,4.46-4.83,6.82c-2.11,2.35-4.89,4.27-8.3,5.82
			c-3.47,1.55-7.75,2.35-12.95,2.35c-6.94,0-13.26-1.67-18.96-4.96c-5.64-3.28-10.16-8.24-13.45-14.75
			c-3.35-6.57-5.02-14.75-5.02-24.66c0-9.91,1.67-18.4,5.02-25.28c3.35-6.88,7.81-12.08,13.51-15.68c5.7-3.59,12.02-5.33,18.96-5.33
			c5.33,0,9.73,0.87,13.14,2.66c3.47,1.8,6.2,3.97,8.24,6.44c2.04,2.48,3.59,4.83,4.65,7.06h1.18v-14.99h21.07v92.2
			c0,7.75-1.86,14.19-5.58,19.27c-3.72,5.08-8.74,8.86-15.18,11.4C510.8,386.69,503.49,387.93,495.37,387.93z M495.56,333.96
			c4.52,0,8.37-1.12,11.59-3.28c3.16-2.23,5.64-5.39,7.25-9.48c1.67-4.15,2.48-9.11,2.48-14.87c0-5.76-0.81-10.72-2.48-14.99
			c-1.61-4.28-4.03-7.62-7.19-10.04c-3.16-2.36-7.06-3.59-11.65-3.59s-8.74,1.24-11.96,3.72c-3.16,2.48-5.58,5.89-7.19,10.16
			c-1.61,4.34-2.42,9.23-2.42,14.68c0,5.45,0.8,10.41,2.48,14.56c1.61,4.15,4.03,7.37,7.25,9.67
			C486.89,332.78,490.85,333.96,495.56,333.96L495.56,333.96z M602.76,313.89v-52.54h21.38v90.71h-20.76v-16.11h-0.93
			c-2.04,5.08-5.39,9.23-10.1,12.45c-4.65,3.22-10.41,4.83-17.23,4.83c-5.95,0-11.22-1.3-15.74-3.97
			c-4.52-2.66-8.12-6.51-10.66-11.65c-2.54-5.08-3.84-11.28-3.84-18.53v-57.75h21.44v54.46c0,5.76,1.55,10.35,4.71,13.69
			c3.16,3.41,7.31,5.08,12.39,5.08c3.16,0,6.2-0.74,9.17-2.29c2.97-1.55,5.39-3.84,7.31-6.88
			C601.83,322.31,602.76,318.47,602.76,313.89L602.76,313.89z M652.52,231.05v121.01h-21.38V231.05L652.52,231.05L652.52,231.05z
			 M686.47,353.85c-5.76,0-10.91-1.05-15.49-3.1c-4.59-2.04-8.24-5.14-10.84-9.17c-2.66-4.03-3.97-9.05-3.97-14.99
			c0-5.14,0.93-9.36,2.85-12.7c1.92-3.35,4.46-6.01,7.75-8.05c3.28-1.98,6.94-3.53,11.09-4.59c4.09-1.05,8.36-1.8,12.76-2.29
			c5.33-0.56,9.6-1.05,12.95-1.49c3.28-0.43,5.7-1.18,7.25-2.11c1.49-0.99,2.29-2.48,2.29-4.52v-0.37c0-4.46-1.3-7.87-3.97-10.35
			c-2.66-2.42-6.44-3.66-11.4-3.66c-5.27,0-9.36,1.12-12.45,3.41c-3.04,2.29-5.08,4.96-6.2,8.12l-19.95-2.85
			c1.55-5.51,4.15-10.1,7.81-13.88c3.59-3.72,8.06-6.5,13.26-8.36c5.27-1.86,11.03-2.79,17.35-2.79c4.4,0,8.74,0.5,13.07,1.55
			s8.3,2.73,11.9,5.08c3.59,2.35,6.44,5.51,8.67,9.54c2.17,4.03,3.28,9.05,3.28,15.06v60.72h-20.57V339.6h-0.68
			c-1.3,2.54-3.1,4.89-5.45,7.06c-2.35,2.17-5.27,3.97-8.8,5.27C695.33,353.23,691.24,353.85,686.47,353.85L686.47,353.85z
			 M692.05,338.18c4.28,0,7.99-0.87,11.15-2.54c3.16-1.73,5.58-3.97,7.31-6.82c1.74-2.85,2.54-5.95,2.54-9.29v-10.72
			c-0.68,0.56-1.8,1.05-3.41,1.55c-1.61,0.5-3.35,0.87-5.33,1.24c-1.98,0.37-3.9,0.68-5.82,0.93c-1.92,0.25-3.59,0.5-5.02,0.68
			c-3.16,0.43-6.07,1.11-8.55,2.11c-2.54,0.99-4.52,2.36-5.95,4.09c-1.49,1.73-2.17,4.03-2.17,6.75c0,3.97,1.43,6.94,4.34,8.92
			C683.93,337.18,687.59,338.18,692.05,338.18L692.05,338.18z M741,352.05v-90.71h20.76v15.12h0.93c1.67-5.27,4.52-9.29,8.55-12.14
			c4.03-2.85,8.68-4.27,13.88-4.27c1.18,0,2.54,0.06,3.97,0.12c1.49,0.12,2.73,0.25,3.72,0.43v19.64c-0.93-0.31-2.35-0.62-4.28-0.87
			c-1.87-0.24-3.75-0.37-5.64-0.37c-3.9,0-7.37,0.87-10.47,2.54c-3.1,1.67-5.51,3.97-7.31,6.94c-1.8,2.97-2.66,6.38-2.66,10.22
			v53.35H741L741,352.05z M217.34,236.62l-6.07,95.36l-58.06-125.04L217.34,236.62z M177.13,359.92l-43.87,25.03l-43.87-25.03
			l8.92-21.62h69.9L177.13,359.92z M133.26,254.41l22.99,55.89h-45.98C110.27,310.29,133.26,254.41,133.26,254.41z M55.18,331.98
			l-6.01-95.36l64.13-29.68L55.18,331.98z"/>
		
			<radialGradient id="SVGID_00000131333169796541432830000015873219391082281117_" cx="2.0073" cy="596.3953" r="0.7573" gradientTransform="matrix(-97.0011 181.4992 181.4992 97.0011 -107770.0234 -58054.9648)" gradientUnits="userSpaceOnUse">
			<stop  offset="0" style="stop-color:#FF41F8"/>
			<stop  offset="0.707" style="stop-color:#FF41F8;stop-opacity:0.5"/>
			<stop  offset="1" style="stop-color:#FF41F8;stop-opacity:0"/>
		</radialGradient>
		<path style="fill:url(#SVGID_00000131333169796541432830000015873219391082281117_);" d="M343.5,352.05h23.36l-42.57-121.01
			h-27.08l-42.57,121.01H278l9.98-29.8h45.48L343.5,352.05L343.5,352.05z M293.93,304.59l16.36-48.7h0.93l16.36,48.7H293.93
			L293.93,304.59z M389.97,298.89v53.16H368.6v-90.71h20.45v15.43h1.05c2.11-5.08,5.45-9.11,10.04-12.08
			c4.59-2.97,10.29-4.46,17.04-4.46c6.26,0,11.71,1.36,16.42,4.03c4.65,2.66,8.3,6.57,10.84,11.65c2.6,5.08,3.84,11.22,3.78,18.46
			v57.68h-21.38v-54.46c0-6.07-1.55-10.78-4.71-14.25c-3.16-3.41-7.44-5.14-12.95-5.14c-3.72,0-7.06,0.8-9.98,2.48
			c-2.91,1.61-5.14,3.97-6.82,7.06C390.84,290.78,389.97,294.49,389.97,298.89L389.97,298.89z M495.37,387.93
			c-7.68,0-14.25-1.05-19.77-3.1c-5.51-2.04-9.91-4.83-13.26-8.3c-3.35-3.47-5.7-7.31-6.94-11.52l19.27-4.65
			c0.87,1.8,2.11,3.53,3.78,5.27c1.67,1.73,3.9,3.22,6.69,4.4c2.79,1.18,6.38,1.73,10.66,1.73c6.07,0,11.09-1.49,15.06-4.4
			c3.97-2.91,5.95-7.74,5.95-14.44v-17.16h-1.05c-1.12,2.23-2.73,4.46-4.83,6.82c-2.11,2.35-4.89,4.27-8.3,5.82
			c-3.47,1.55-7.75,2.35-12.95,2.35c-6.94,0-13.26-1.67-18.96-4.96c-5.64-3.28-10.16-8.24-13.45-14.75
			c-3.35-6.57-5.02-14.75-5.02-24.66c0-9.91,1.67-18.4,5.02-25.28c3.35-6.88,7.81-12.08,13.51-15.68c5.7-3.59,12.02-5.33,18.96-5.33
			c5.33,0,9.73,0.87,13.14,2.66c3.47,1.8,6.2,3.97,8.24,6.44c2.04,2.48,3.59,4.83,4.65,7.06h1.18v-14.99h21.07v92.2
			c0,7.75-1.86,14.19-5.58,19.27c-3.72,5.08-8.74,8.86-15.18,11.4C510.8,386.69,503.49,387.93,495.37,387.93z M495.56,333.96
			c4.52,0,8.37-1.12,11.59-3.28c3.16-2.23,5.64-5.39,7.25-9.48c1.67-4.15,2.48-9.11,2.48-14.87c0-5.76-0.81-10.72-2.48-14.99
			c-1.61-4.28-4.03-7.62-7.19-10.04c-3.16-2.36-7.06-3.59-11.65-3.59s-8.74,1.24-11.96,3.72c-3.16,2.48-5.58,5.89-7.19,10.16
			c-1.61,4.34-2.42,9.23-2.42,14.68c0,5.45,0.8,10.41,2.48,14.56c1.61,4.15,4.03,7.37,7.25,9.67
			C486.89,332.78,490.85,333.96,495.56,333.96L495.56,333.96z M602.76,313.89v-52.54h21.38v90.71h-20.76v-16.11h-0.93
			c-2.04,5.08-5.39,9.23-10.1,12.45c-4.65,3.22-10.41,4.83-17.23,4.83c-5.95,0-11.22-1.3-15.74-3.97
			c-4.52-2.66-8.12-6.51-10.66-11.65c-2.54-5.08-3.84-11.28-3.84-18.53v-57.75h21.44v54.46c0,5.76,1.55,10.35,4.71,13.69
			c3.16,3.41,7.31,5.08,12.39,5.08c3.16,0,6.2-0.74,9.17-2.29c2.97-1.55,5.39-3.84,7.31-6.88
			C601.83,322.31,602.76,318.47,602.76,313.89L602.76,313.89z M652.52,231.05v121.01h-21.38V231.05L652.52,231.05L652.52,231.05z
			 M686.47,353.85c-5.76,0-10.91-1.05-15.49-3.1c-4.59-2.04-8.24-5.14-10.84-9.17c-2.66-4.03-3.97-9.05-3.97-14.99
			c0-5.14,0.93-9.36,2.85-12.7c1.92-3.35,4.46-6.01,7.75-8.05c3.28-1.98,6.94-3.53,11.09-4.59c4.09-1.05,8.36-1.8,12.76-2.29
			c5.33-0.56,9.6-1.05,12.95-1.49c3.28-0.43,5.7-1.18,7.25-2.11c1.49-0.99,2.29-2.48,2.29-4.52v-0.37c0-4.46-1.3-7.87-3.97-10.35
			c-2.66-2.42-6.44-3.66-11.4-3.66c-5.27,0-9.36,1.12-12.45,3.41c-3.04,2.29-5.08,4.96-6.2,8.12l-19.95-2.85
			c1.55-5.51,4.15-10.1,7.81-13.88c3.59-3.72,8.06-6.5,13.26-8.36c5.27-1.86,11.03-2.79,17.35-2.79c4.4,0,8.74,0.5,13.07,1.55
			s8.3,2.73,11.9,5.08c3.59,2.35,6.44,5.51,8.67,9.54c2.17,4.03,3.28,9.05,3.28,15.06v60.72h-20.57V339.6h-0.68
			c-1.3,2.54-3.1,4.89-5.45,7.06c-2.35,2.17-5.27,3.97-8.8,5.27C695.33,353.23,691.24,353.85,686.47,353.85L686.47,353.85z
			 M692.05,338.18c4.28,0,7.99-0.87,11.15-2.54c3.16-1.73,5.58-3.97,7.31-6.82c1.74-2.85,2.54-5.95,2.54-9.29v-10.72
			c-0.68,0.56-1.8,1.05-3.41,1.55c-1.61,0.5-3.35,0.87-5.33,1.24c-1.98,0.37-3.9,0.68-5.82,0.93c-1.92,0.25-3.59,0.5-5.02,0.68
			c-3.16,0.43-6.07,1.11-8.55,2.11c-2.54,0.99-4.52,2.36-5.95,4.09c-1.49,1.73-2.17,4.03-2.17,6.75c0,3.97,1.43,6.94,4.34,8.92
			C683.93,337.18,687.59,338.18,692.05,338.18L692.05,338.18z M741,352.05v-90.71h20.76v15.12h0.93c1.67-5.27,4.52-9.29,8.55-12.14
			c4.03-2.85,8.68-4.27,13.88-4.27c1.18,0,2.54,0.06,3.97,0.12c1.49,0.12,2.73,0.25,3.72,0.43v19.64c-0.93-0.31-2.35-0.62-4.28-0.87
			c-1.87-0.24-3.75-0.37-5.64-0.37c-3.9,0-7.37,0.87-10.47,2.54c-3.1,1.67-5.51,3.97-7.31,6.94c-1.8,2.97-2.66,6.38-2.66,10.22
			v53.35H741L741,352.05z M217.34,236.62l-6.07,95.36l-58.06-125.04L217.34,236.62z M177.13,359.92l-43.87,25.03l-43.87-25.03
			l8.92-21.62h69.9L177.13,359.92z M133.26,254.41l22.99,55.89h-45.98C110.27,310.29,133.26,254.41,133.26,254.41z M55.18,331.98
			l-6.01-95.36l64.13-29.68L55.18,331.98z"/>
	</g>
</g>
</svg>
